<svg width="55" height="49" viewBox="0 0 55 49" fill="none" xmlns="http://www.w3.org/2000/svg">
<g opacity="0.5">
<path d="M8.27068 4.26087C8.27068 6.61409 6.41921 8.52174 4.13534 8.52174C1.85146 8.52174 0 6.61409 0 4.26087C0 1.90765 1.85146 0 4.13534 0C6.41921 0 8.27068 1.90765 8.27068 4.26087Z" fill="white"/>
<path d="M17.1617 24.5C17.1617 26.8532 15.3102 28.7609 13.0263 28.7609C10.7424 28.7609 8.89098 26.8532 8.89098 24.5C8.89098 22.1468 10.7424 20.2391 13.0263 20.2391C15.3102 20.2391 17.1617 22.1468 17.1617 24.5Z" fill="white"/>
<path d="M4.13534 49C6.41921 49 8.27068 47.0924 8.27068 44.7391C8.27068 42.3859 6.41921 40.4783 4.13534 40.4783C1.85146 40.4783 0 42.3859 0 44.7391C0 47.0924 1.85146 49 4.13534 49Z" fill="white"/>
<path d="M27.0865 5.11304C27.0865 7.9369 24.8647 10.2261 22.1241 10.2261C19.3834 10.2261 17.1617 7.9369 17.1617 5.11304C17.1617 2.28919 19.3834 0 22.1241 0C24.8647 0 27.0865 2.28919 27.0865 5.11304Z" fill="white"/>
<path d="M31.2218 29.613C33.9625 29.613 36.1842 27.3239 36.1842 24.5C36.1842 21.6761 33.9625 19.387 31.2218 19.387C28.4811 19.387 26.2594 21.6761 26.2594 24.5C26.2594 27.3239 28.4811 29.613 31.2218 29.613Z" fill="white"/>
<path d="M27.0865 43.887C27.0865 46.7108 24.8647 49 22.1241 49C19.3834 49 17.1617 46.7108 17.1617 43.887C17.1617 41.0631 19.3834 38.7739 22.1241 38.7739C24.8647 38.7739 27.0865 41.0631 27.0865 43.887Z" fill="white"/>
<path d="M40.2162 11.7174C43.3565 11.7174 45.9023 9.09436 45.9023 5.8587C45.9023 2.62303 43.3565 0 40.2162 0C37.0758 0 34.5301 2.62303 34.5301 5.8587C34.5301 9.09436 37.0758 11.7174 40.2162 11.7174Z" fill="white"/>
<path d="M55 24.3935C55 27.6291 52.4542 30.2522 49.3139 30.2522C46.1736 30.2522 43.6278 27.6291 43.6278 24.3935C43.6278 21.1578 46.1736 18.5348 49.3139 18.5348C52.4542 18.5348 55 21.1578 55 24.3935Z" fill="white"/>
<path d="M40.2162 49C43.3565 49 45.9023 46.377 45.9023 43.1413C45.9023 39.9056 43.3565 37.2826 40.2162 37.2826C37.0758 37.2826 34.5301 39.9056 34.5301 43.1413C34.5301 46.377 37.0758 49 40.2162 49Z" fill="white"/>
</g>
</svg>
