<svg width="80" height="51" viewBox="0 0 80 51" fill="none" xmlns="http://www.w3.org/2000/svg">
<g opacity="0.5">
<path d="M8.25222 12.9403H29.8071C30.8706 12.9435 31.8896 13.3727 32.6416 14.1343C33.3936 14.896 33.8174 15.928 33.8205 17.0051V17.3333C33.8172 18.4103 33.3933 19.4422 32.6413 20.2038C31.8894 20.9654 30.8705 21.3947 29.8071 21.3981H13.7119C13.7114 21.3985 13.711 21.3991 13.7107 21.3998C13.7104 21.4004 13.7102 21.4011 13.7102 21.4019C13.7102 21.4026 13.7104 21.4033 13.7107 21.4039C13.711 21.4046 13.7114 21.4052 13.7119 21.4057L32.8034 50.9975H47.5006C47.5013 50.997 47.5019 50.9964 47.5023 50.9957C47.5027 50.9949 47.5029 50.9941 47.5029 50.9933C47.5029 50.9924 47.5027 50.9916 47.5023 50.9909C47.5019 50.9901 47.5013 50.9895 47.5006 50.989L35.8589 32.9716C35.8584 32.9711 35.8579 32.9705 35.8576 32.9699C35.8574 32.9692 35.8572 32.9685 35.8572 32.9678C35.8572 32.9671 35.8574 32.9663 35.8576 32.9657C35.8579 32.965 35.8584 32.9644 35.8589 32.964C38.5307 31.883 40.8839 30.1255 42.6931 27.8598C44.5024 25.5941 45.7071 22.896 46.1921 20.0237C47.929 9.62069 39.8798 0.170044 29.4622 0.170044H0.079362L0.0275879 0.203876L8.24387 12.9378C8.24371 12.9384 8.24365 12.9389 8.24371 12.9395C8.24377 12.9401 8.24394 12.9407 8.24421 12.9412C8.24448 12.9417 8.24484 12.9421 8.24529 12.9425C8.24573 12.9429 8.24624 12.9431 8.24679 12.9433C8.24734 12.9435 8.24791 12.9435 8.24848 12.9435C8.24905 12.9434 8.24961 12.9432 8.25011 12.943C8.25061 12.9427 8.25106 12.9423 8.25142 12.9419C8.25179 12.9414 8.25206 12.9409 8.25222 12.9403Z" fill="white"/>
<path d="M79.985 38.2289H63.215C63.1315 38.2289 63.053 38.2289 62.972 38.2212L62.8576 38.2119C62.8226 38.2119 62.7875 38.206 62.7524 38.2018C62.6973 38.1959 62.6438 38.1891 62.5912 38.1806H62.5679C61.6948 38.0418 60.8877 37.6259 60.2628 36.9929C59.6379 36.3599 59.2275 35.5423 59.0906 34.658C59.0906 34.6504 59.0906 34.6428 59.0906 34.6352C59.0823 34.5819 59.0756 34.5269 59.0697 34.4719C59.0697 34.4364 59.0631 34.4009 59.0597 34.3654C59.0564 34.3299 59.053 34.2884 59.0505 34.2487C59.0505 34.1641 59.043 34.0854 59.043 34.0034C59.043 33.9188 59.043 33.8342 59.0505 33.7573C59.0505 33.7175 59.0564 33.6795 59.0597 33.6405C59.0631 33.6016 59.0656 33.5695 59.0697 33.534C59.0756 33.479 59.0823 33.4249 59.0906 33.3707C59.0906 33.3631 59.0906 33.3555 59.0906 33.3479C59.2275 32.4636 59.6379 31.6461 60.2628 31.013C60.8877 30.38 61.6948 29.9641 62.5679 29.8253H62.5912C62.6438 29.8177 62.6973 29.8101 62.7524 29.8041L62.8576 29.794C62.8952 29.794 62.9336 29.7872 62.972 29.7855C63.0528 29.7804 63.1338 29.7779 63.215 29.7779H80V17.0127C80 17.0093 79.9987 17.0061 79.9963 17.0037C79.994 17.0013 79.9908 17 79.9875 17H63.3795C53.6167 17 45.914 25.0856 46.4568 34.9591C46.9478 43.9014 54.2631 51 63.215 51H79.985C79.9883 51 79.9915 50.9987 79.9938 50.9963C79.9962 50.9939 79.9975 50.9907 79.9975 50.9873V38.2415C79.9975 38.2382 79.9962 38.235 79.9938 38.2326C79.9915 38.2302 79.9883 38.2289 79.985 38.2289Z" fill="white"/>
<path d="M12.3591 50.9999V27.6567C12.3591 25.9967 11.708 24.4048 10.5491 23.2311C9.39025 22.0573 7.81846 21.3979 6.17954 21.3979C4.54062 21.3979 2.96883 22.0573 1.80995 23.2311C0.651057 24.4048 0 25.9967 0 27.6567V50.9999H12.3591Z" fill="white"/>
<path d="M53.4931 0L61.5758 12.5174H80V0H53.4931Z" fill="white"/>
</g>
</svg>
