<svg width="165" height="118" viewBox="0 0 165 118" fill="none" xmlns="http://www.w3.org/2000/svg">
<path d="M2.51602 4.91671C3.90557 4.91671 5.03203 3.81607 5.03203 2.45835C5.03203 1.10064 3.90557 0 2.51602 0C1.12646 0 0 1.10064 0 2.45835C0 3.81607 1.12646 4.91671 2.51602 4.91671Z" fill="white"/>
<path d="M7.5472 21.2004C10.5 21.2004 12.8937 18.8615 12.8937 15.9764C12.8937 13.0912 10.5 10.7524 7.5472 10.7524C4.59438 10.7524 2.20065 13.0912 2.20065 15.9764C2.20065 18.8615 4.59438 21.2004 7.5472 21.2004Z" fill="white"/>
<path d="M13.8359 34.7243C16.7887 34.7243 19.1824 32.3854 19.1824 29.5003C19.1824 26.6151 16.7887 24.2762 13.8359 24.2762C10.8831 24.2762 8.48935 26.6151 8.48935 29.5003C8.48935 32.3854 10.8831 34.7243 13.8359 34.7243Z" fill="white"/>
<path d="M20.7559 46.4003C22.3192 46.4003 23.5865 45.1621 23.5865 43.6346C23.5865 42.1072 22.3192 40.869 20.7559 40.869C19.1927 40.869 17.9254 42.1072 17.9254 43.6346C17.9254 45.1621 19.1927 46.4003 20.7559 46.4003Z" fill="white"/>
<path d="M29.5648 61.7634C31.3018 61.7634 32.7098 60.3876 32.7098 58.6905C32.7098 56.9933 31.3018 55.6175 29.5648 55.6175C27.8279 55.6175 26.4198 56.9933 26.4198 58.6905C26.4198 60.3876 27.8279 61.7634 29.5648 61.7634Z" fill="white"/>
<path d="M40.259 81.1274C44.0803 81.1274 47.1781 78.1006 47.1781 74.3669C47.1781 70.6332 44.0803 67.6064 40.259 67.6064C36.4378 67.6064 33.34 70.6332 33.34 74.3669C33.34 78.1006 36.4378 81.1274 40.259 81.1274Z" fill="white"/>
<path d="M52.2025 94.9535C54.4605 94.9535 56.291 93.1649 56.291 90.9586C56.291 88.7524 54.4605 86.9638 52.2025 86.9638C49.9445 86.9638 48.114 88.7524 48.114 90.9586C48.114 93.1649 49.9445 94.9535 52.2025 94.9535Z" fill="white"/>
<path d="M66.0447 118C71.4292 118 75.7943 113.735 75.7943 108.474C75.7943 103.213 71.4292 98.9477 66.0447 98.9477C60.6601 98.9477 56.2951 103.213 56.2951 108.474C56.2951 113.735 60.6601 118 66.0447 118Z" fill="white"/>
<path d="M22.6411 6.76062C24.0306 6.76062 25.1571 5.65997 25.1571 4.30226C25.1571 2.94455 24.0306 1.8439 22.6411 1.8439C21.2515 1.8439 20.1251 2.94455 20.1251 4.30226C20.1251 5.65997 21.2515 6.76062 22.6411 6.76062Z" fill="#8B8B8B"/>
<path d="M26.7301 18.4342C28.1197 18.4342 29.2461 17.3336 29.2461 15.9759C29.2461 14.6181 28.1197 13.5175 26.7301 13.5175C25.3405 13.5175 24.2141 14.6181 24.2141 15.9759C24.2141 17.3336 25.3405 18.4342 26.7301 18.4342Z" fill="#8B8B8B"/>
<path d="M31.7663 32.879C34.7192 32.879 37.1129 30.5401 37.1129 27.655C37.1129 24.7699 34.7192 22.431 31.7663 22.431C28.8135 22.431 26.4198 24.7699 26.4198 27.655C26.4198 30.5401 28.8135 32.879 31.7663 32.879Z" fill="#8B8B8B"/>
<path d="M38.3698 43.0211C39.7594 43.0211 40.8858 41.9204 40.8858 40.5627C40.8858 39.205 39.7594 38.1044 38.3698 38.1044C36.9803 38.1044 35.8538 39.205 35.8538 40.5627C35.8538 41.9204 36.9803 43.0211 38.3698 43.0211Z" fill="#8B8B8B"/>
<path d="M46.5456 59.6164C49.6721 59.6164 52.2067 57.14 52.2067 54.0851C52.2067 51.0303 49.6721 48.5538 46.5456 48.5538C43.4191 48.5538 40.8846 51.0303 40.8846 54.0851C40.8846 57.14 43.4191 59.6164 46.5456 59.6164Z" fill="#8B8B8B"/>
<path d="M56.2944 74.3634C59.7683 74.3634 62.5845 71.6118 62.5845 68.2175C62.5845 64.8233 59.7683 62.0717 56.2944 62.0717C52.8205 62.0717 50.0044 64.8233 50.0044 68.2175C50.0044 71.6118 52.8205 74.3634 56.2944 74.3634Z" fill="#8B8B8B"/>
<path d="M68.244 86.3508C70.1546 86.3508 71.7035 84.8374 71.7035 82.9705C71.7035 81.1037 70.1546 79.5903 68.244 79.5903C66.3334 79.5903 64.7845 81.1037 64.7845 82.9705C64.7845 84.8374 66.3334 86.3508 68.244 86.3508Z" fill="#8B8B8B"/>
<path d="M83.6548 106.323C88.3446 106.323 92.1464 102.608 92.1464 98.0259C92.1464 93.4436 88.3446 89.7289 83.6548 89.7289C78.9651 89.7289 75.1633 93.4436 75.1633 98.0259C75.1633 102.608 78.9651 106.323 83.6548 106.323Z" fill="#8B8B8B"/>
<path d="M40.8865 7.99028C42.1023 7.99028 43.088 7.02722 43.088 5.83922C43.088 4.65122 42.1023 3.68816 40.8865 3.68816C39.6706 3.68816 38.685 4.65122 38.685 5.83922C38.685 7.02722 39.6706 7.99028 40.8865 7.99028Z" fill="#8B8B8B"/>
<path d="M44.6572 20.2815C47.0889 20.2815 49.0602 18.3554 49.0602 15.9794C49.0602 13.6034 47.0889 11.6773 44.6572 11.6773C42.2255 11.6773 40.2542 13.6034 40.2542 15.9794C40.2542 18.3554 42.2255 20.2815 44.6572 20.2815Z" fill="#8B8B8B"/>
<path d="M49.0628 31.0352C51.6682 31.0352 53.7803 28.9715 53.7803 26.4258C53.7803 23.8801 51.6682 21.8164 49.0628 21.8164C46.4573 21.8164 44.3452 23.8801 44.3452 26.4258C44.3452 28.9715 46.4573 31.0352 49.0628 31.0352Z" fill="#8B8B8B"/>
<path d="M55.0403 40.5612C56.4298 40.5612 57.5563 39.4606 57.5563 38.1029C57.5563 36.7452 56.4298 35.6445 55.0403 35.6445C53.6507 35.6445 52.5243 36.7452 52.5243 38.1029C52.5243 39.4606 53.6507 40.5612 55.0403 40.5612Z" fill="#8B8B8B"/>
<path d="M62.9002 52.5451C64.2898 52.5451 65.4163 51.4445 65.4163 50.0868C65.4163 48.729 64.2898 47.6284 62.9002 47.6284C61.5107 47.6284 60.3842 48.729 60.3842 50.0868C60.3842 51.4445 61.5107 52.5451 62.9002 52.5451Z" fill="#8B8B8B"/>
<path d="M72.3349 68.2196C75.4614 68.2196 77.996 65.7432 77.996 62.6883C77.996 59.6334 75.4614 57.157 72.3349 57.157C69.2084 57.157 66.6739 59.6334 66.6739 62.6883C66.6739 65.7432 69.2084 68.2196 72.3349 68.2196Z" fill="#8B8B8B"/>
<path d="M84.2834 82.0422C87.7573 82.0422 90.5735 79.2906 90.5735 75.8963C90.5735 72.502 87.7573 69.7504 84.2834 69.7504C80.8095 69.7504 77.9934 72.502 77.9934 75.8963C77.9934 79.2906 80.8095 82.0422 84.2834 82.0422Z" fill="#8B8B8B"/>
<path d="M98.753 96.49C102.748 96.49 105.987 93.3256 105.987 89.4222C105.987 85.5188 102.748 82.3544 98.753 82.3544C94.758 82.3544 91.5195 85.5188 91.5195 89.4222C91.5195 93.3256 94.758 96.49 98.753 96.49Z" fill="#8B8B8B"/>
<path d="M113.534 87.8868C117.181 87.8868 120.138 84.9976 120.138 81.4336C120.138 77.8696 117.181 74.9804 113.534 74.9804C109.886 74.9804 106.929 77.8696 106.929 81.4336C106.929 84.9976 109.886 87.8868 113.534 87.8868Z" fill="#8B8B8B"/>
<path d="M99.6944 75.5941C102.821 75.5941 105.355 73.1176 105.355 70.0628C105.355 67.0079 102.821 64.5315 99.6944 64.5315C96.5679 64.5315 94.0334 67.0079 94.0334 70.0628C94.0334 73.1176 96.5679 75.5941 99.6944 75.5941Z" fill="#8B8B8B"/>
<path d="M88.0612 62.9966C90.8403 62.9966 93.0933 60.7953 93.0933 58.0799C93.0933 55.3645 90.8403 53.1632 88.0612 53.1632C85.2821 53.1632 83.0292 55.3645 83.0292 58.0799C83.0292 60.7953 85.2821 62.9966 88.0612 62.9966Z" fill="#8B8B8B"/>
<path d="M78.9413 51.9326C81.7204 51.9326 83.9734 49.7313 83.9734 47.0159C83.9734 44.3005 81.7204 42.0992 78.9413 42.0992C76.1622 42.0992 73.9093 44.3005 73.9093 47.0159C73.9093 49.7313 76.1622 51.9326 78.9413 51.9326Z" fill="#8B8B8B"/>
<path d="M71.3953 38.4117C72.6112 38.4117 73.5968 37.4486 73.5968 36.2606C73.5968 35.0726 72.6112 34.1096 71.3953 34.1096C70.1794 34.1096 69.1938 35.0726 69.1938 36.2606C69.1938 37.4486 70.1794 38.4117 71.3953 38.4117Z" fill="#8B8B8B"/>
<path d="M65.4175 29.806C67.6755 29.806 69.506 28.0175 69.506 25.8112C69.506 23.6049 67.6755 21.8164 65.4175 21.8164C63.1594 21.8164 61.3289 23.6049 61.3289 25.8112C61.3289 28.0175 63.1594 29.806 65.4175 29.806Z" fill="#8B8B8B"/>
<path d="M61.0132 20.5868C63.2712 20.5868 65.1017 18.7982 65.1017 16.592C65.1017 14.3857 63.2712 12.5971 61.0132 12.5971C58.7551 12.5971 56.9246 14.3857 56.9246 16.592C56.9246 18.7982 58.7551 20.5868 61.0132 20.5868Z" fill="#8B8B8B"/>
<path d="M57.2405 8.91065C58.2826 8.91065 59.1275 8.08517 59.1275 7.06688C59.1275 6.0486 58.2826 5.22311 57.2405 5.22311C56.1983 5.22311 55.3535 6.0486 55.3535 7.06688C55.3535 8.08517 56.1983 8.91065 57.2405 8.91065Z" fill="#8B8B8B"/>
<path d="M72.0205 10.1408C73.0627 10.1408 73.9075 9.31536 73.9075 8.29707C73.9075 7.27879 73.0627 6.45331 72.0205 6.45331C70.9783 6.45331 70.1335 7.27879 70.1335 8.29707C70.1335 9.31536 70.9783 10.1408 72.0205 10.1408Z" fill="#8B8B8B"/>
<path d="M76.1082 20.282C78.1925 20.282 79.8822 18.631 79.8822 16.5944C79.8822 14.5579 78.1925 12.9069 76.1082 12.9069C74.0238 12.9069 72.3341 14.5579 72.3341 16.5944C72.3341 18.631 74.0238 20.282 76.1082 20.282Z" fill="#8B8B8B"/>
<path d="M80.5135 29.1915C82.5978 29.1915 84.2875 27.5405 84.2875 25.5039C84.2875 23.4674 82.5978 21.8164 80.5135 21.8164C78.4291 21.8164 76.7394 23.4674 76.7394 25.5039C76.7394 27.5405 78.4291 29.1915 80.5135 29.1915Z" fill="#8B8B8B"/>
<path d="M86.4872 38.7195C88.7453 38.7195 90.5758 36.931 90.5758 34.7247C90.5758 32.5184 88.7453 30.7298 86.4872 30.7298C84.2292 30.7298 82.3987 32.5184 82.3987 34.7247C82.3987 36.931 84.2292 38.7195 86.4872 38.7195Z" fill="#8B8B8B"/>
<path d="M93.721 46.7066C94.9368 46.7066 95.9225 45.7435 95.9225 44.5555C95.9225 43.3675 94.9368 42.4044 93.721 42.4044C92.5051 42.4044 91.5195 43.3675 91.5195 44.5555C91.5195 45.7435 92.5051 46.7066 93.721 46.7066Z" fill="#8B8B8B"/>
<path d="M103.157 58.3822C105.589 58.3822 107.56 56.4561 107.56 54.0801C107.56 51.7041 105.589 49.778 103.157 49.778C100.725 49.778 98.7539 51.7041 98.7539 54.0801C98.7539 56.4561 100.725 58.3822 103.157 58.3822Z" fill="#8B8B8B"/>
<path d="M114.475 69.7551C117.428 69.7551 119.822 67.4162 119.822 64.531C119.822 61.6459 117.428 59.307 114.475 59.307C111.522 59.307 109.129 61.6459 109.129 64.531C109.129 67.4162 111.522 69.7551 114.475 69.7551Z" fill="#8B8B8B"/>
<path d="M127.69 77.7471C129.253 77.7471 130.52 76.5089 130.52 74.9814C130.52 73.454 129.253 72.2158 127.69 72.2158C126.127 72.2158 124.859 73.454 124.859 74.9814C124.859 76.5089 126.127 77.7471 127.69 77.7471Z" fill="#8B8B8B"/>
<path d="M127.687 65.1462C130.292 65.1462 132.404 63.0825 132.404 60.5367C132.404 57.991 130.292 55.9273 127.687 55.9273C125.081 55.9273 122.969 57.991 122.969 60.5367C122.969 63.0825 125.081 65.1462 127.687 65.1462Z" fill="#8B8B8B"/>
<path d="M140.579 71.5977C141.969 71.5977 143.095 70.4971 143.095 69.1394C143.095 67.7817 141.969 66.681 140.579 66.681C139.19 66.681 138.063 67.7817 138.063 69.1394C138.063 70.4971 139.19 71.5977 140.579 71.5977Z" fill="#8B8B8B"/>
<path d="M116.681 55.6181C119.113 55.6181 121.084 53.692 121.084 51.316C121.084 48.94 119.113 47.0138 116.681 47.0138C114.249 47.0138 112.278 48.94 112.278 51.316C112.278 53.692 114.249 55.6181 116.681 55.6181Z" fill="#8B8B8B"/>
<path d="M107.557 46.3993C109.815 46.3993 111.646 44.6108 111.646 42.4045C111.646 40.1982 109.815 38.4097 107.557 38.4097C105.299 38.4097 103.468 40.1982 103.468 42.4045C103.468 44.6108 105.299 46.3993 107.557 46.3993Z" fill="#8B8B8B"/>
<path d="M100.327 35.3373C101.369 35.3373 102.214 34.5118 102.214 33.4935C102.214 32.4752 101.369 31.6497 100.327 31.6497C99.2845 31.6497 98.4397 32.4752 98.4397 33.4935C98.4397 34.5118 99.2845 35.3373 100.327 35.3373Z" fill="#8B8B8B"/>
<path d="M94.3488 28.8862C96.4331 28.8862 98.1228 27.2352 98.1228 25.1987C98.1228 23.1621 96.4331 21.5111 94.3488 21.5111C92.2645 21.5111 90.5748 23.1621 90.5748 25.1987C90.5748 27.2352 92.2645 28.8862 94.3488 28.8862Z" fill="#8B8B8B"/>
<path d="M89.6317 19.3596C90.6739 19.3596 91.5188 18.5341 91.5188 17.5158C91.5188 16.4975 90.6739 15.672 89.6317 15.672C88.5896 15.672 87.7447 16.4975 87.7447 17.5158C87.7447 18.5341 88.5896 19.3596 89.6317 19.3596Z" fill="#8B8B8B"/>
<path d="M85.5467 11.3705C86.5889 11.3705 87.4337 10.545 87.4337 9.52672C87.4337 8.50843 86.5889 7.68295 85.5467 7.68295C84.5045 7.68295 83.6597 8.50843 83.6597 9.52672C83.6597 10.545 84.5045 11.3705 85.5467 11.3705Z" fill="#8B8B8B"/>
<path d="M97.6536 12.1357C98.6089 12.1357 99.3834 11.379 99.3834 10.4456C99.3834 9.51215 98.6089 8.75546 97.6536 8.75546C96.6983 8.75546 95.9238 9.51215 95.9238 10.4456C95.9238 11.379 96.6983 12.1357 97.6536 12.1357Z" fill="#8B8B8B"/>
<path d="M101.899 21.2024C103.81 21.2024 105.359 19.689 105.359 17.8221C105.359 15.9553 103.81 14.4419 101.899 14.4419C99.9885 14.4419 98.4397 15.9553 98.4397 17.8221C98.4397 19.689 99.9885 21.2024 101.899 21.2024Z" fill="#8B8B8B"/>
<path d="M106.928 28.5769C108.839 28.5769 110.388 27.0635 110.388 25.1966C110.388 23.3298 108.839 21.8164 106.928 21.8164C105.017 21.8164 103.468 23.3298 103.468 25.1966C103.468 27.0635 105.017 28.5769 106.928 28.5769Z" fill="#8B8B8B"/>
<path d="M112.909 35.9514C114.819 35.9514 116.368 34.438 116.368 32.5712C116.368 30.7043 114.819 29.1909 112.909 29.1909C110.998 29.1909 109.449 30.7043 109.449 32.5712C109.449 34.438 110.998 35.9514 112.909 35.9514Z" fill="#8B8B8B"/>
<path d="M120.14 42.7117C121.183 42.7117 122.028 41.8863 122.028 40.868C122.028 39.8497 121.183 39.0242 120.14 39.0242C119.098 39.0242 118.253 39.8497 118.253 40.868C118.253 41.8863 119.098 42.7117 120.14 42.7117Z" fill="#8B8B8B"/>
<path d="M128.948 52.8529C131.206 52.8529 133.037 51.0644 133.037 48.8581C133.037 46.6518 131.206 44.8633 128.948 44.8633C126.69 44.8633 124.859 46.6518 124.859 48.8581C124.859 51.0644 126.69 52.8529 128.948 52.8529Z" fill="#8B8B8B"/>
<path d="M139.32 58.695C140.536 58.695 141.522 57.7319 141.522 56.5439C141.522 55.3559 140.536 54.3928 139.32 54.3928C138.104 54.3928 137.119 55.3559 137.119 56.5439C137.119 57.7319 138.104 58.695 139.32 58.695Z" fill="#8B8B8B"/>
<path d="M151.9 69.4452C154.679 69.4452 156.932 67.244 156.932 64.5285C156.932 61.8131 154.679 59.6118 151.9 59.6118C149.121 59.6118 146.868 61.8131 146.868 64.5285C146.868 67.244 149.121 69.4452 151.9 69.4452Z" fill="#8B8B8B"/>
<path d="M162.285 62.6893C163.501 62.6893 164.487 61.7262 164.487 60.5382C164.487 59.3502 163.501 58.3871 162.285 58.3871C161.07 58.3871 160.084 59.3502 160.084 60.5382C160.084 61.7262 161.07 62.6893 162.285 62.6893Z" fill="#8B8B8B"/>
<path d="M149.707 57.7676C151.965 57.7676 153.795 55.9791 153.795 53.7728C153.795 51.5665 151.965 49.778 149.707 49.778C147.448 49.778 145.618 51.5665 145.618 53.7728C145.618 55.9791 147.448 57.7676 149.707 57.7676Z" fill="#8B8B8B"/>
<path d="M139.326 48.2415C140.368 48.2415 141.213 47.416 141.213 46.3978C141.213 45.3795 140.368 44.554 139.326 44.554C138.284 44.554 137.439 45.3795 137.439 46.3978C137.439 47.416 138.284 48.2415 139.326 48.2415Z" fill="#8B8B8B"/>
<path d="M130.828 42.405C132.739 42.405 134.287 40.8916 134.287 39.0248C134.287 37.1579 132.739 35.6445 130.828 35.6445C128.917 35.6445 127.368 37.1579 127.368 39.0248C127.368 40.8916 128.917 42.405 130.828 42.405Z" fill="#8B8B8B"/>
<path d="M123.597 35.3358C125.508 35.3358 127.057 33.8224 127.057 31.9556C127.057 30.0887 125.508 28.5753 123.597 28.5753C121.687 28.5753 120.138 30.0887 120.138 31.9556C120.138 33.8224 121.687 35.3358 123.597 35.3358Z" fill="#8B8B8B"/>
<path d="M117.624 27.9623C119.361 27.9623 120.769 26.5865 120.769 24.8893C120.769 23.1922 119.361 21.8164 117.624 21.8164C115.887 21.8164 114.479 23.1922 114.479 24.8893C114.479 26.5865 115.887 27.9623 117.624 27.9623Z" fill="#8B8B8B"/>
<path d="M112.909 20.8981C114.646 20.8981 116.054 19.5223 116.054 17.8251C116.054 16.128 114.646 14.7522 112.909 14.7522C111.172 14.7522 109.764 16.128 109.764 17.8251C109.764 19.5223 111.172 20.8981 112.909 20.8981Z" fill="#8B8B8B"/>
<path d="M108.191 12.5956C109.06 12.5956 109.764 11.9077 109.764 11.0592C109.764 10.2106 109.06 9.52269 108.191 9.52269C107.323 9.52269 106.619 10.2106 106.619 11.0592C106.619 11.9077 107.323 12.5956 108.191 12.5956Z" fill="#8B8B8B"/>
</svg>
