<svg width="38" height="59" viewBox="0 0 38 59" fill="none" xmlns="http://www.w3.org/2000/svg">
<g opacity="0.5">
<path opacity="0.6" d="M0 8.93191C0 8.26723 0.407891 7.66739 1.0349 7.41001L18.7682 0.130516C19.8813 -0.326379 21.1111 0.472514 21.1111 1.65241V33.5613C21.1111 34.226 20.7032 34.8258 20.0762 35.0832L2.34288 42.3627C1.22986 42.8196 0 42.0207 0 40.8408V8.93191Z" fill="white"/>
<path opacity="0.8" d="M8.44446 17.1853C8.44446 16.5206 8.85235 15.9208 9.47935 15.6634L27.2127 8.38393C28.3257 7.92704 29.5556 8.72593 29.5556 9.90583V41.8147C29.5556 42.4794 29.1477 43.0792 28.5207 43.3366L10.7873 50.6161C9.67432 51.073 8.44446 50.2741 8.44446 49.0942V17.1853Z" fill="white"/>
<path d="M16.8889 25.4387C16.8889 24.774 17.2968 24.1742 17.9238 23.9168L35.6571 16.6373C36.7702 16.1804 38 16.9793 38 18.1592V50.0681C38 50.7327 37.5921 51.3326 36.9651 51.59L19.2318 58.8695C18.1188 59.3264 16.8889 58.5275 16.8889 57.3476V25.4387Z" fill="white"/>
</g>
</svg>
