<svg width="354" height="118" viewBox="0 0 354 118" fill="none" xmlns="http://www.w3.org/2000/svg">
<g clip-path="url(#clip0)">
<path fill-rule="evenodd" clip-rule="evenodd" d="M199 0H222.41V93.64H245.82V0H269.23V117.05H199V0ZM353.116 0H282.886V23.41H323.203L282.886 93.64V117.05H353.116V93.64H312.799L353.116 23.41V0ZM66.1579 117.024H38.6987V110.052L52.044 99.0364C54.6817 96.8577 56.3062 95.2193 56.3062 92.692C56.3062 89.9555 54.4022 88.2997 51.7296 88.2997C49.0396 88.2997 47.2055 89.973 47.223 92.9709H38C37.9826 85.4587 43.3976 80.8398 51.7296 80.8398C60.3062 80.8398 65.7736 85.1972 65.7736 91.8554C65.7736 95.9862 63.695 99.507 55.5376 106.287L52.1838 109.076V109.285H66.1579V117.024ZM101.871 99.2456C101.853 111.063 95.8093 118.017 86.0798 118C76.3328 117.983 70.2541 111.011 70.289 99.2456C70.324 87.4631 76.3328 80.8398 86.0798 80.8398C95.8093 80.8398 101.888 87.4979 101.871 99.2456ZM80.3504 99.2456C80.3155 106.758 82.726 110.122 86.0798 110.122C89.4336 110.122 91.8266 106.758 91.8092 99.2456C91.7917 91.9077 89.4336 88.6483 86.0798 88.6483C82.726 88.6483 80.3853 91.9077 80.3504 99.2456ZM120.404 117.512C129.155 117.512 135.321 113.067 135.286 106.775C135.321 102.4 132.387 99.3153 126.622 98.6878V98.409C130.884 97.9558 133.994 95.2193 133.959 91.2279C133.994 85.2146 128.404 80.8398 120.474 80.8398C112.369 80.8398 106.604 85.4587 106.569 91.9948H115.862C115.897 89.8335 117.801 88.2997 120.474 88.2997C122.919 88.2997 124.631 89.7812 124.596 91.8554C124.631 94.0167 122.605 95.5505 119.705 95.5505H116.072V102.243H119.705C122.849 102.243 125.05 103.777 125.015 105.939C125.05 108.152 123.164 109.703 120.474 109.703C117.679 109.703 115.687 108.222 115.653 106.148H105.871C105.906 112.806 111.932 117.512 120.404 117.512ZM170.994 99.2456C170.977 111.063 164.933 118.017 155.204 118C145.457 117.983 139.378 111.011 139.413 99.2456C139.448 87.4631 145.457 80.8398 155.204 80.8398C164.933 80.8398 171.012 87.4979 170.994 99.2456ZM149.474 99.2456C149.439 106.758 151.85 110.122 155.204 110.122C158.557 110.122 160.951 106.758 160.933 99.2456C160.916 91.9077 158.557 88.6483 155.204 88.6483C151.85 88.6483 149.509 91.9077 149.474 99.2456Z" fill="white"/>
<path d="M39.3906 16.2812V24H33.9062V1.25H42.9844C44.724 1.25 46.2604 1.57292 47.5938 2.21875C48.9375 2.85417 49.974 3.76562 50.7031 4.95312C51.4427 6.13021 51.8125 7.46875 51.8125 8.96875C51.8125 11.1875 51.0156 12.9635 49.4219 14.2969C47.8385 15.6198 45.6615 16.2812 42.8906 16.2812H39.3906ZM39.3906 12.0469H42.9844C44.0469 12.0469 44.8542 11.7812 45.4062 11.25C45.9688 10.7188 46.25 9.96875 46.25 9C46.25 7.9375 45.9635 7.08854 45.3906 6.45312C44.8177 5.81771 44.0365 5.49479 43.0469 5.48438H39.3906V12.0469ZM63.8438 24C63.6562 23.6562 63.4896 23.151 63.3438 22.4844C62.375 23.7031 61.0208 24.3125 59.2812 24.3125C57.6875 24.3125 56.3333 23.8333 55.2188 22.875C54.1042 21.9062 53.5469 20.6927 53.5469 19.2344C53.5469 17.401 54.224 16.0156 55.5781 15.0781C56.9323 14.1406 58.901 13.6719 61.4844 13.6719H63.1094V12.7812C63.1094 11.2292 62.4375 10.4531 61.0938 10.4531C59.8438 10.4531 59.2188 11.0677 59.2188 12.2969H53.9531C53.9531 10.6615 54.6458 9.33333 56.0312 8.3125C57.4271 7.29167 59.2031 6.78125 61.3594 6.78125C63.5156 6.78125 65.2188 7.30729 66.4688 8.35938C67.7188 9.41146 68.3594 10.8542 68.3906 12.6875V20.1719C68.4115 21.724 68.651 22.9115 69.1094 23.7344V24H63.8438ZM60.5469 20.5625C61.2031 20.5625 61.7448 20.4219 62.1719 20.1406C62.6094 19.8594 62.9219 19.5417 63.1094 19.1875V16.4844H61.5781C59.7448 16.4844 58.8281 17.3073 58.8281 18.9531C58.8281 19.4323 58.9896 19.8229 59.3125 20.125C59.6354 20.4167 60.0469 20.5625 60.5469 20.5625ZM78.5312 18.0938H76.9531V24H71.6719V7.09375H76.9531V13.1719H78.4688L81.1562 7.09375H87.9062L82.9688 14.9062H82.9844L88.4062 24H81.2656L78.5312 18.0938ZM90.5781 29.5625H85.3125V20.5156H90.5781V29.5625ZM102.562 24C102.375 23.6562 102.208 23.151 102.062 22.4844C101.094 23.7031 99.7396 24.3125 98 24.3125C96.4062 24.3125 95.0521 23.8333 93.9375 22.875C92.8229 21.9062 92.2656 20.6927 92.2656 19.2344C92.2656 17.401 92.9427 16.0156 94.2969 15.0781C95.651 14.1406 97.6198 13.6719 100.203 13.6719H101.828V12.7812C101.828 11.2292 101.156 10.4531 99.8125 10.4531C98.5625 10.4531 97.9375 11.0677 97.9375 12.2969H92.6719C92.6719 10.6615 93.3646 9.33333 94.75 8.3125C96.1458 7.29167 97.9219 6.78125 100.078 6.78125C102.234 6.78125 103.938 7.30729 105.188 8.35938C106.438 9.41146 107.078 10.8542 107.109 12.6875V20.1719C107.13 21.724 107.37 22.9115 107.828 23.7344V24H102.562ZM99.2656 20.5625C99.9219 20.5625 100.464 20.4219 100.891 20.1406C101.328 19.8594 101.641 19.5417 101.828 19.1875V16.4844H100.297C98.4635 16.4844 97.5469 17.3073 97.5469 18.9531C97.5469 19.4323 97.7083 19.8229 98.0312 20.125C98.3542 20.4167 98.7656 20.5625 99.2656 20.5625ZM120.625 18.1875L124.453 7.09375H131.078V24H125.797V14.625L122.391 24H118.891L115.672 15.125V24H110.391V7.09375H116.859L120.625 18.1875ZM149.703 7.09375V24H144.438V11.1562H141.281L141 16.3281C140.802 18.8906 140.224 20.8073 139.266 22.0781C138.307 23.349 136.885 23.9896 135 24H133.344L133.281 19.9688L133.828 19.9062C134.526 19.8229 135.042 19.3594 135.375 18.5156C135.719 17.6615 135.938 16.375 136.031 14.6562L136.359 7.09375H149.703ZM162.406 7.09375H167.688V24H162.406V14.1562L157.766 24H152.469V7.09375H157.766V16.9062L162.406 7.09375ZM10.3281 49.125V49.1406L14.0938 39.25H19.875L12.2188 57.2969C11.3958 59.1198 10.4688 60.4062 9.4375 61.1562C8.41667 61.8958 7.21875 62.2865 5.84375 62.3281H4.73438L3.89062 62.2969L3.79688 58.0469C3.92188 58.0885 4.28646 58.1094 4.89062 58.1094C5.72396 58.1094 6.34896 57.9688 6.76562 57.6875C7.19271 57.3958 7.53646 56.8385 7.79688 56.0156L8.0625 55.2656L-0.15625 39.25H5.67188L10.3281 49.125ZM16.2031 33.125C16.2031 34.5521 15.6771 35.7083 14.625 36.5938C13.5729 37.4792 12.1719 37.9219 10.4219 37.9219C8.67188 37.9219 7.27083 37.4792 6.21875 36.5938C5.16667 35.7083 4.64062 34.5521 4.64062 33.125H8.21875C8.21875 33.75 8.41146 34.2396 8.79688 34.5938C9.19271 34.9375 9.73438 35.1094 10.4219 35.1094C11.1094 35.1094 11.6406 34.9427 12.0156 34.6094C12.401 34.2656 12.5938 33.7708 12.5938 33.125H16.2031ZM29.6094 50.2031C29.6094 49.099 29.026 48.5469 27.8594 48.5469C26.5156 48.5469 25.8438 49.0312 25.8438 50H20.5781C20.5781 48.4688 21.2188 47.2188 22.5 46.25C23.7917 45.2812 25.4635 44.7969 27.5156 44.7969C29.7969 44.7969 31.5938 45.2292 32.9062 46.0938C34.2188 46.9479 34.875 48.1562 34.875 49.7188C34.875 50.4688 34.6458 51.1615 34.1875 51.7969C33.7396 52.4219 33.1042 52.9219 32.2812 53.2969C34.2083 53.974 35.1719 55.2812 35.1719 57.2188C35.1719 58.7604 34.474 59.9948 33.0781 60.9219C31.6927 61.849 29.8385 62.3125 27.5156 62.3125C25.401 62.3125 23.6719 61.8333 22.3281 60.875C20.9844 59.9062 20.3125 58.6146 20.3125 57H25.5781C25.5781 57.4271 25.7552 57.7969 26.1094 58.1094C26.4635 58.4115 27.0521 58.5625 27.875 58.5625C28.5417 58.5625 29.0469 58.401 29.3906 58.0781C29.7448 57.7552 29.9219 57.3125 29.9219 56.75C29.9219 55.5417 29.25 54.9167 27.9062 54.875H25.5469V51.8125H27.6875C28.9688 51.8125 29.6094 51.276 29.6094 50.2031ZM46.2969 46.0312C48.5052 46.0312 50.2552 46.7552 51.5469 48.2031C52.849 49.651 53.5 51.625 53.5 54.125V54.3438C53.5 55.9271 53.1719 57.3281 52.5156 58.5469C51.8594 59.7552 50.9115 60.6875 49.6719 61.3438C48.4427 62 47 62.3281 45.3438 62.3281C42.8438 62.3281 40.849 61.526 39.3594 59.9219C37.8802 58.3177 37.1406 56.1094 37.1406 53.2969V52.7969C37.1615 48.9427 37.7969 45.9115 39.0469 43.7031C40.2969 41.4948 42.2083 40.1042 44.7812 39.5312C45.9375 39.2708 46.6927 39.0208 47.0469 38.7812C47.4115 38.5312 47.5938 38.1458 47.5938 37.625H51.8281C51.8281 38.9271 51.625 39.9167 51.2188 40.5938C50.8229 41.2708 50.1875 41.8333 49.3125 42.2812C48.4479 42.7188 47.2292 43.0833 45.6562 43.375C44.4167 43.6042 43.4583 44.0938 42.7812 44.8438C42.1146 45.5833 41.6615 46.6198 41.4219 47.9531C42.8281 46.6719 44.4531 46.0312 46.2969 46.0312ZM45.3125 50.0938C43.3854 50.0938 42.4219 51.4271 42.4219 54.0938V54.3438C42.4219 56.9583 43.3958 58.2656 45.3438 58.2656C47.2292 58.2656 48.1927 57.0156 48.2344 54.5156V54.0156C48.2344 51.401 47.2604 50.0938 45.3125 50.0938ZM64.0938 62.3125C61.5 62.3125 59.401 61.5417 57.7969 60C56.1927 58.4479 55.3906 56.4323 55.3906 53.9531V53.5156C55.3906 51.7865 55.7083 50.2604 56.3438 48.9375C56.9896 47.6146 57.9271 46.5938 59.1562 45.875C60.3854 45.1458 61.8438 44.7812 63.5312 44.7812C65.9062 44.7812 67.7812 45.5208 69.1562 47C70.5312 48.4688 71.2188 50.5208 71.2188 53.1562V55.2031H60.75C60.9375 56.151 61.349 56.8958 61.9844 57.4375C62.6198 57.9792 63.4427 58.25 64.4531 58.25C66.1198 58.25 67.4219 57.6667 68.3594 56.5L70.7656 59.3438C70.1094 60.25 69.1771 60.974 67.9688 61.5156C66.7708 62.0469 65.4792 62.3125 64.0938 62.3125ZM63.5 48.8438C61.9583 48.8438 61.0417 49.8646 60.75 51.9062H66.0625V51.5C66.0833 50.6562 65.8698 50.0052 65.4219 49.5469C64.974 49.0781 64.3333 48.8438 63.5 48.8438ZM80.5625 56.0938H78.9844V62H73.7031V45.0938H78.9844V51.1719H80.5L83.1875 45.0938H89.9375L85 52.9062H85.0156L90.4375 62H83.2969L80.5625 56.0938ZM101.531 45.0938H106.812V62H101.531V52.1562L96.8906 62H91.5938V45.0938H96.8906V54.9062L101.531 45.0938ZM116.781 58.25C117.521 58.25 118.094 58.0521 118.5 57.6562C118.906 57.25 119.104 56.6875 119.094 55.9688H124.031C124.031 57.8229 123.365 59.3438 122.031 60.5312C120.708 61.7188 119 62.3125 116.906 62.3125C114.448 62.3125 112.51 61.5417 111.094 60C109.677 58.4583 108.969 56.3229 108.969 53.5938V53.375C108.969 51.6667 109.281 50.1615 109.906 48.8594C110.542 47.5469 111.453 46.5417 112.641 45.8438C113.828 45.1354 115.234 44.7812 116.859 44.7812C119.057 44.7812 120.802 45.3906 122.094 46.6094C123.385 47.8281 124.031 49.4792 124.031 51.5625H119.094C119.094 50.6875 118.88 50.0156 118.453 49.5469C118.026 49.0781 117.453 48.8438 116.734 48.8438C115.37 48.8438 114.573 49.7135 114.344 51.4531C114.271 52.0052 114.234 52.7656 114.234 53.7344C114.234 55.4323 114.438 56.6094 114.844 57.2656C115.25 57.9219 115.896 58.25 116.781 58.25ZM141.062 49.125H135.734V62H130.438V49.125H125.188V45.0938H141.062V49.125ZM141.906 53.3906C141.906 51.7031 142.234 50.2031 142.891 48.8906C143.547 47.5677 144.49 46.5521 145.719 45.8438C146.948 45.1354 148.391 44.7812 150.047 44.7812C152.578 44.7812 154.573 45.5677 156.031 47.1406C157.49 48.7031 158.219 50.8333 158.219 53.5312V53.7188C158.219 56.3542 157.484 58.4479 156.016 60C154.557 61.5417 152.578 62.3125 150.078 62.3125C147.672 62.3125 145.74 61.5938 144.281 60.1562C142.823 58.7083 142.036 56.75 141.922 54.2812L141.906 53.3906ZM147.172 53.7188C147.172 55.2812 147.417 56.4271 147.906 57.1562C148.396 57.8854 149.12 58.25 150.078 58.25C151.953 58.25 152.911 56.8073 152.953 53.9219V53.3906C152.953 50.3594 151.984 48.8438 150.047 48.8438C148.286 48.8438 147.333 50.151 147.188 52.7656L147.172 53.7188ZM175.594 62H170.312V55.7344H165.703V62H160.438V45.0938H165.703V51.6875H170.312V45.0938H175.594V62Z" fill="white"/>
</g>
<defs>
<clipPath id="clip0">
<rect width="354" height="118" fill="white"/>
</clipPath>
</defs>
</svg>
