<svg width="354" height="118" viewBox="0 0 354 118" fill="none" xmlns="http://www.w3.org/2000/svg">
<g clip-path="url(#clip0)">
<path fill-rule="evenodd" clip-rule="evenodd" d="M199 0H222.41V93.64H245.82V0H269.23V117.05H199V0ZM353.116 0H282.886V23.41H323.203L282.886 93.64V117.05H353.116V93.64H312.799L353.116 23.41V0ZM66.1579 117.024H38.6987V110.052L52.044 99.0364C54.6817 96.8577 56.3062 95.2193 56.3062 92.692C56.3062 89.9555 54.4022 88.2997 51.7296 88.2997C49.0396 88.2997 47.2055 89.973 47.223 92.9709H38C37.9826 85.4587 43.3976 80.8398 51.7296 80.8398C60.3062 80.8398 65.7736 85.1972 65.7736 91.8554C65.7736 95.9862 63.695 99.507 55.5376 106.287L52.1838 109.076V109.285H66.1579V117.024ZM101.871 99.2456C101.853 111.063 95.8093 118.017 86.0798 118C76.3328 117.983 70.2541 111.011 70.289 99.2456C70.324 87.4631 76.3328 80.8398 86.0798 80.8398C95.8093 80.8398 101.888 87.4979 101.871 99.2456ZM80.3504 99.2456C80.3155 106.758 82.726 110.122 86.0798 110.122C89.4336 110.122 91.8266 106.758 91.8092 99.2456C91.7917 91.9077 89.4336 88.6483 86.0798 88.6483C82.726 88.6483 80.3853 91.9077 80.3504 99.2456ZM120.404 117.512C129.155 117.512 135.321 113.067 135.286 106.775C135.321 102.4 132.387 99.3153 126.622 98.6878V98.409C130.884 97.9558 133.994 95.2193 133.959 91.2279C133.994 85.2146 128.404 80.8398 120.474 80.8398C112.369 80.8398 106.604 85.4587 106.569 91.9948H115.862C115.897 89.8335 117.801 88.2997 120.474 88.2997C122.919 88.2997 124.631 89.7812 124.596 91.8554C124.631 94.0167 122.605 95.5505 119.705 95.5505H116.072V102.243H119.705C122.849 102.243 125.05 103.777 125.015 105.939C125.05 108.152 123.164 109.703 120.474 109.703C117.679 109.703 115.687 108.222 115.653 106.148H105.871C105.906 112.806 111.932 117.512 120.404 117.512ZM170.994 99.2456C170.977 111.063 164.933 118.017 155.204 118C145.457 117.983 139.378 111.011 139.413 99.2456C139.448 87.4631 145.457 80.8398 155.204 80.8398C164.933 80.8398 171.012 87.4979 170.994 99.2456ZM149.474 99.2456C149.439 106.758 151.85 110.122 155.204 110.122C158.557 110.122 160.951 106.758 160.933 99.2456C160.916 91.9077 158.557 88.6483 155.204 88.6483C151.85 88.6483 149.509 91.9077 149.474 99.2456Z" fill="white"/>
<path d="M69.8906 15.6719H66.1562V24H61.4688V1.25H69.9219C72.6094 1.25 74.6823 1.84896 76.1406 3.04688C77.599 4.24479 78.3281 5.9375 78.3281 8.125C78.3281 9.67708 77.9896 10.974 77.3125 12.0156C76.6458 13.0469 75.6302 13.8698 74.2656 14.4844L79.1875 23.7812V24H74.1562L69.8906 15.6719ZM66.1562 11.875H69.9375C71.1146 11.875 72.026 11.5781 72.6719 10.9844C73.3177 10.3802 73.6406 9.55208 73.6406 8.5C73.6406 7.42708 73.3333 6.58333 72.7188 5.96875C72.1146 5.35417 71.1823 5.04688 69.9219 5.04688H66.1562V11.875ZM91.4062 24C91.1979 23.5938 91.0469 23.0885 90.9531 22.4844C89.8594 23.7031 88.4375 24.3125 86.6875 24.3125C85.0312 24.3125 83.6562 23.8333 82.5625 22.875C81.4792 21.9167 80.9375 20.7083 80.9375 19.25C80.9375 17.4583 81.599 16.0833 82.9219 15.125C84.2552 14.1667 86.1771 13.6823 88.6875 13.6719H90.7656V12.7031C90.7656 11.9219 90.5625 11.2969 90.1562 10.8281C89.7604 10.3594 89.1302 10.125 88.2656 10.125C87.5052 10.125 86.9062 10.3073 86.4688 10.6719C86.0417 11.0365 85.8281 11.5365 85.8281 12.1719H81.3125C81.3125 11.1927 81.6146 10.2865 82.2188 9.45312C82.8229 8.61979 83.6771 7.96875 84.7812 7.5C85.8854 7.02083 87.125 6.78125 88.5 6.78125C90.5833 6.78125 92.2344 7.30729 93.4531 8.35938C94.6823 9.40104 95.2969 10.8698 95.2969 12.7656V20.0938C95.3073 21.6979 95.5312 22.9115 95.9688 23.7344V24H91.4062ZM87.6719 20.8594C88.3385 20.8594 88.9531 20.7135 89.5156 20.4219C90.0781 20.1198 90.4948 19.7188 90.7656 19.2188V16.3125H89.0781C86.8177 16.3125 85.6146 17.0938 85.4688 18.6562L85.4531 18.9219C85.4531 19.4844 85.651 19.9479 86.0469 20.3125C86.4427 20.6771 86.9844 20.8594 87.6719 20.8594ZM98.0625 15.3906C98.0625 12.7344 98.651 10.6354 99.8281 9.09375C101.016 7.55208 102.641 6.78125 104.703 6.78125C106.516 6.78125 107.958 7.47396 109.031 8.85938L109.328 7.09375H113.297V30.5H108.766V22.5469C107.724 23.724 106.359 24.3125 104.672 24.3125C102.661 24.3125 101.057 23.5312 99.8594 21.9688C98.6615 20.4062 98.0625 18.2135 98.0625 15.3906ZM102.578 15.7188C102.578 17.3333 102.859 18.5625 103.422 19.4062C103.995 20.25 104.797 20.6719 105.828 20.6719C107.214 20.6719 108.193 20.1198 108.766 19.0156V12.0312C108.203 10.9688 107.234 10.4375 105.859 10.4375C104.818 10.4375 104.01 10.8594 103.438 11.7031C102.865 12.5469 102.578 13.8854 102.578 15.7188ZM126.656 24C126.448 23.5938 126.297 23.0885 126.203 22.4844C125.109 23.7031 123.688 24.3125 121.938 24.3125C120.281 24.3125 118.906 23.8333 117.812 22.875C116.729 21.9167 116.188 20.7083 116.188 19.25C116.188 17.4583 116.849 16.0833 118.172 15.125C119.505 14.1667 121.427 13.6823 123.938 13.6719H126.016V12.7031C126.016 11.9219 125.812 11.2969 125.406 10.8281C125.01 10.3594 124.38 10.125 123.516 10.125C122.755 10.125 122.156 10.3073 121.719 10.6719C121.292 11.0365 121.078 11.5365 121.078 12.1719H116.562C116.562 11.1927 116.865 10.2865 117.469 9.45312C118.073 8.61979 118.927 7.96875 120.031 7.5C121.135 7.02083 122.375 6.78125 123.75 6.78125C125.833 6.78125 127.484 7.30729 128.703 8.35938C129.932 9.40104 130.547 10.8698 130.547 12.7656V20.0938C130.557 21.6979 130.781 22.9115 131.219 23.7344V24H126.656ZM122.922 20.8594C123.589 20.8594 124.203 20.7135 124.766 20.4219C125.328 20.1198 125.745 19.7188 126.016 19.2188V16.3125H124.328C122.068 16.3125 120.865 17.0938 120.719 18.6562L120.703 18.9219C120.703 19.4844 120.901 19.9479 121.297 20.3125C121.693 20.6771 122.234 20.8594 122.922 20.8594ZM138.25 7.09375L138.391 8.98438C139.589 7.51562 141.208 6.78125 143.25 6.78125C145.427 6.78125 146.922 7.64062 147.734 9.35938C148.922 7.64062 150.615 6.78125 152.812 6.78125C154.646 6.78125 156.01 7.31771 156.906 8.39062C157.802 9.45312 158.25 11.0573 158.25 13.2031V24H153.719V13.2188C153.719 12.2604 153.531 11.5625 153.156 11.125C152.781 10.6771 152.12 10.4531 151.172 10.4531C149.818 10.4531 148.88 11.099 148.359 12.3906L148.375 24H143.859V13.2344C143.859 12.2552 143.667 11.5469 143.281 11.1094C142.896 10.6719 142.24 10.4531 141.312 10.4531C140.031 10.4531 139.104 10.9844 138.531 12.0469V24H134.016V7.09375H138.25ZM166.5 24H161.969V0H166.5V24ZM175 24H170.469V7.09375H175V24ZM170.203 2.71875C170.203 2.04167 170.427 1.48438 170.875 1.04688C171.333 0.609375 171.953 0.390625 172.734 0.390625C173.505 0.390625 174.12 0.609375 174.578 1.04688C175.036 1.48438 175.266 2.04167 175.266 2.71875C175.266 3.40625 175.031 3.96875 174.562 4.40625C174.104 4.84375 173.495 5.0625 172.734 5.0625C171.974 5.0625 171.359 4.84375 170.891 4.40625C170.432 3.96875 170.203 3.40625 170.203 2.71875ZM28.2188 51.1406C28.2188 53.3802 27.8229 55.3438 27.0312 57.0312C26.2396 58.7188 25.1042 60.0208 23.625 60.9375C22.1562 61.8542 20.4688 62.3125 18.5625 62.3125C16.6771 62.3125 14.9948 61.8594 13.5156 60.9531C12.0365 60.0469 10.8906 58.7552 10.0781 57.0781C9.26562 55.3906 8.85417 53.4531 8.84375 51.2656V50.1406C8.84375 47.901 9.24479 45.9323 10.0469 44.2344C10.8594 42.526 12 41.2188 13.4688 40.3125C14.9479 39.3958 16.6354 38.9375 18.5312 38.9375C20.4271 38.9375 22.1094 39.3958 23.5781 40.3125C25.0573 41.2188 26.1979 42.526 27 44.2344C27.8125 45.9323 28.2188 47.8958 28.2188 50.125V51.1406ZM23.4688 50.1094C23.4688 47.724 23.0417 45.9115 22.1875 44.6719C21.3333 43.4323 20.1146 42.8125 18.5312 42.8125C16.9583 42.8125 15.7448 43.4271 14.8906 44.6562C14.0365 45.875 13.6042 47.6667 13.5938 50.0312V51.1406C13.5938 53.4635 14.0208 55.2656 14.875 56.5469C15.7292 57.8281 16.9583 58.4688 18.5625 58.4688C20.1354 58.4688 21.3438 57.8542 22.1875 56.625C23.0312 55.3854 23.4583 53.5833 23.4688 51.2188V50.1094ZM32.625 46.2344L30.5 45C31.3958 43.5938 31.8594 42.1406 31.8906 40.6406V38H35.4844V40.4219C35.4844 41.3594 35.224 42.375 34.7031 43.4688C34.1823 44.5625 33.4896 45.4844 32.625 46.2344ZM43.8594 58.3594H52.125V62H38.0938V59.25L46.0469 48.75H38.3281V45.0938H51.875V47.7656L43.8594 58.3594ZM70.1875 53.7031C70.1875 56.4115 69.6094 58.526 68.4531 60.0469C67.2969 61.5573 65.6823 62.3125 63.6094 62.3125C61.776 62.3125 60.3125 61.6094 59.2188 60.2031L59.0156 62H54.9531V38H59.4688V46.6094C60.5104 45.3906 61.8802 44.7812 63.5781 44.7812C65.6406 44.7812 67.2552 45.5417 68.4219 47.0625C69.599 48.5729 70.1875 50.7031 70.1875 53.4531V53.7031ZM65.6719 53.375C65.6719 51.6667 65.401 50.4219 64.8594 49.6406C64.3177 48.849 63.5104 48.4531 62.4375 48.4531C61 48.4531 60.0104 49.0417 59.4688 50.2188V56.8906C60.0208 58.0781 61.0208 58.6719 62.4688 58.6719C63.9271 58.6719 64.8854 57.9531 65.3438 56.5156C65.5625 55.8281 65.6719 54.7812 65.6719 53.375ZM80.7656 62.3125C78.2865 62.3125 76.2656 61.5521 74.7031 60.0312C73.151 58.5104 72.375 56.4844 72.375 53.9531V53.5156C72.375 51.8177 72.7031 50.3021 73.3594 48.9688C74.0156 47.625 74.9427 46.5938 76.1406 45.875C77.349 45.1458 78.724 44.7812 80.2656 44.7812C82.5781 44.7812 84.3958 45.5104 85.7188 46.9688C87.0521 48.4271 87.7188 50.4948 87.7188 53.1719V55.0156H76.9531C77.099 56.1198 77.5365 57.0052 78.2656 57.6719C79.0052 58.3385 79.9375 58.6719 81.0625 58.6719C82.8021 58.6719 84.1615 58.0417 85.1406 56.7812L87.3594 59.2656C86.6823 60.224 85.7656 60.974 84.6094 61.5156C83.4531 62.0469 82.1719 62.3125 80.7656 62.3125ZM80.25 48.4375C79.3542 48.4375 78.625 48.7396 78.0625 49.3438C77.5104 49.9479 77.1562 50.8125 77 51.9375H83.2812V51.5781C83.2604 50.5781 82.9896 49.8073 82.4688 49.2656C81.9479 48.7135 81.2083 48.4375 80.25 48.4375ZM96.4375 55.2188L94.8125 56.8438V62H90.2969V38H94.8125V51.2969L95.6875 50.1719L100.016 45.0938H105.438L99.3281 52.1406L105.969 62H100.781L96.4375 55.2188ZM112.156 62H107.625V45.0938H112.156V62ZM107.359 40.7188C107.359 40.0417 107.583 39.4844 108.031 39.0469C108.49 38.6094 109.109 38.3906 109.891 38.3906C110.661 38.3906 111.276 38.6094 111.734 39.0469C112.193 39.4844 112.422 40.0417 112.422 40.7188C112.422 41.4062 112.188 41.9688 111.719 42.4062C111.26 42.8438 110.651 43.0625 109.891 43.0625C109.13 43.0625 108.516 42.8438 108.047 42.4062C107.589 41.9688 107.359 41.4062 107.359 40.7188ZM125.047 57.3281C125.047 56.776 124.771 56.3438 124.219 56.0312C123.677 55.7083 122.802 55.4219 121.594 55.1719C117.573 54.3281 115.562 52.6198 115.562 50.0469C115.562 48.5469 116.182 47.2969 117.422 46.2969C118.672 45.2865 120.302 44.7812 122.312 44.7812C124.458 44.7812 126.172 45.2865 127.453 46.2969C128.745 47.3073 129.391 48.6198 129.391 50.2344H124.875C124.875 49.5885 124.667 49.0573 124.25 48.6406C123.833 48.2135 123.182 48 122.297 48C121.536 48 120.948 48.1719 120.531 48.5156C120.115 48.8594 119.906 49.2969 119.906 49.8281C119.906 50.3281 120.141 50.7344 120.609 51.0469C121.089 51.349 121.891 51.6146 123.016 51.8438C124.141 52.0625 125.089 52.3125 125.859 52.5938C128.245 53.4688 129.438 54.9844 129.438 57.1406C129.438 58.6823 128.776 59.9323 127.453 60.8906C126.13 61.8385 124.422 62.3125 122.328 62.3125C120.911 62.3125 119.651 62.0625 118.547 61.5625C117.453 61.0521 116.594 60.3594 115.969 59.4844C115.344 58.599 115.031 57.6458 115.031 56.625H119.312C119.354 57.4271 119.651 58.0417 120.203 58.4688C120.755 58.8958 121.495 59.1094 122.422 59.1094C123.286 59.1094 123.938 58.9479 124.375 58.625C124.823 58.2917 125.047 57.8594 125.047 57.3281ZM137.766 40.9375V45.0938H140.656V48.4062H137.766V56.8438C137.766 57.4688 137.885 57.9167 138.125 58.1875C138.365 58.4583 138.823 58.5938 139.5 58.5938C140 58.5938 140.443 58.5573 140.828 58.4844V61.9062C139.943 62.1771 139.031 62.3125 138.094 62.3125C134.927 62.3125 133.312 60.7135 133.25 57.5156V48.4062H130.781V45.0938H133.25V40.9375H137.766ZM142 53.3906C142 51.7135 142.323 50.2188 142.969 48.9062C143.615 47.5938 144.542 46.5781 145.75 45.8594C146.969 45.1406 148.38 44.7812 149.984 44.7812C152.266 44.7812 154.125 45.4792 155.562 46.875C157.01 48.2708 157.818 50.1667 157.984 52.5625L158.016 53.7188C158.016 56.3125 157.292 58.3958 155.844 59.9688C154.396 61.5312 152.453 62.3125 150.016 62.3125C147.578 62.3125 145.63 61.5312 144.172 59.9688C142.724 58.4062 142 56.2812 142 53.5938V53.3906ZM146.516 53.7188C146.516 55.3229 146.818 56.5521 147.422 57.4062C148.026 58.25 148.891 58.6719 150.016 58.6719C151.109 58.6719 151.964 58.2552 152.578 57.4219C153.193 56.5781 153.5 55.2344 153.5 53.3906C153.5 51.8177 153.193 50.599 152.578 49.7344C151.964 48.8698 151.099 48.4375 149.984 48.4375C148.88 48.4375 148.026 48.8698 147.422 49.7344C146.818 50.5885 146.516 51.9167 146.516 53.7188ZM164.953 45.0938L165.094 47.0469C166.302 45.5365 167.922 44.7812 169.953 44.7812C171.745 44.7812 173.078 45.3073 173.953 46.3594C174.828 47.4115 175.276 48.9844 175.297 51.0781V62H170.781V51.1875C170.781 50.2292 170.573 49.5365 170.156 49.1094C169.74 48.6719 169.047 48.4531 168.078 48.4531C166.807 48.4531 165.854 48.9948 165.219 50.0781V62H160.703V45.0938H164.953Z" fill="white"/>
</g>
<defs>
<clipPath id="clip0">
<rect width="354" height="118" fill="white"/>
</clipPath>
</defs>
</svg>
