<svg width="40" height="36" viewBox="0 0 40 36" fill="none" xmlns="http://www.w3.org/2000/svg">
<path fill-rule="evenodd" clip-rule="evenodd" d="M20 0.5C20.5947 0.5 21.1444 0.816911 21.4424 1.33161L39.7757 32.9983C40.0742 33.5139 40.0748 34.1497 39.7772 34.6658C39.4796 35.182 38.9291 35.5 38.3333 35.5H1.66667C1.07087 35.5 0.520383 35.182 0.222793 34.6658C-0.0747981 34.1497 -0.0742275 33.5139 0.224289 32.9983L18.5576 1.33161C18.8556 0.816911 19.4053 0.5 20 0.5ZM4.55741 32.1667H35.4426L20 5.49311L4.55741 32.1667ZM19.9986 12.1671C20.9191 12.1663 21.6659 12.9119 21.6667 13.8324L21.6736 22.1653C21.6743 23.0858 20.9288 23.8326 20.0083 23.8334C19.0878 23.8341 18.341 23.0885 18.3403 22.1681L18.3333 13.8352C18.3326 12.9147 19.0781 12.1679 19.9986 12.1671ZM20 25.5C20.9205 25.5 21.6667 26.2462 21.6667 27.1667V28C21.6667 28.9205 20.9205 29.6667 20 29.6667C19.0795 29.6667 18.3333 28.9205 18.3333 28V27.1667C18.3333 26.2462 19.0795 25.5 20 25.5Z" fill="white"/>
</svg>
