<svg width="196" height="155" viewBox="0 0 196 155" fill="none" xmlns="http://www.w3.org/2000/svg">
<path d="M116.056 104.823C118.325 104.758 120.904 104.461 123.536 103.796C123.849 103.718 124.169 103.634 124.498 103.542C126.53 102.98 128.726 102.151 130.988 100.764C131.538 100.435 132.079 100.081 132.608 99.7009L132.589 99.6928C134.198 98.5221 135.828 97.0411 137.446 95.148C138.11 94.371 139.248 92.7293 139.896 91.4558C138.4 89.8706 136.125 88.567 133.992 87.4202L133.764 87.2977C132.776 86.7646 130.988 85.8006 129.318 85.1475C129.14 85.0784 128.955 85.01 128.765 84.9401C127.323 84.4084 125.639 83.7871 125.468 82.0742C125.337 80.7525 126.007 79.927 126.805 78.9431C126.997 78.7068 127.196 78.4613 127.393 78.1977C129.721 75.0874 131.913 70.8452 131.517 65.1012C131.128 59.4633 127.521 55.0854 121.482 54.4096C120.783 54.3314 120.101 54.2978 119.44 54.3074C118.779 54.2978 118.098 54.3314 117.399 54.4096C111.359 55.0854 107.752 59.4633 107.363 65.1012C106.967 70.8452 109.159 75.0874 111.487 78.1977C111.684 78.4613 111.884 78.7068 112.075 78.9431C112.873 79.927 113.543 80.7525 113.412 82.0742C113.242 83.7871 111.557 84.4084 110.115 84.9401C109.926 85.0098 109.739 85.0785 109.563 85.1475C107.892 85.8006 106.104 86.7647 105.116 87.2977L104.888 87.4202C101.722 89.1218 98.2461 91.1687 97.4649 93.9684C96.5103 97.3936 95.995 101.693 96.0899 104.823H101.496C103.003 104.823 104.555 104.838 106.134 104.854C109.379 104.886 112.739 104.919 116.056 104.823Z" fill="#4825C2"/>
<path fill-rule="evenodd" clip-rule="evenodd" d="M196 85.0513L195.994 88.2349L195.984 90.6773L195.971 92.7358L195.953 94.5488L195.931 96.1871L195.906 97.693L195.876 99.0939L195.843 100.409L195.805 101.651L195.764 102.832L195.719 103.96L195.669 105.04L195.616 106.078L195.559 107.079L195.498 108.045L195.433 108.981L195.364 109.888L195.291 110.769L195.214 111.625L195.133 112.459L195.048 113.272L194.959 114.065L194.866 114.84L194.769 115.597L194.669 116.337L194.564 117.062L194.455 117.772L194.342 118.468L194.225 119.15L194.104 119.819L193.979 120.475L193.85 121.12L193.717 121.753L193.58 122.375L193.438 122.986L193.293 123.587L193.144 124.178L192.99 124.759L192.833 125.331L192.671 125.894L192.505 126.447L192.335 126.993L192.161 127.53L191.983 128.058L191.801 128.579L191.614 129.092L191.423 129.598L191.228 130.095L191.029 130.586L190.826 131.07L190.618 131.546L190.406 132.016L190.19 132.479L189.969 132.936L189.744 133.386L189.515 133.829L189.282 134.266L189.044 134.698L188.801 135.123L188.555 135.542L188.304 135.955L188.048 136.363L187.788 136.764L187.523 137.16L187.254 137.551L186.981 137.936L186.702 138.316L186.42 138.69L186.132 139.059L185.84 139.422L185.543 139.781L185.242 140.134L184.935 140.482L184.624 140.825L184.308 141.163L183.988 141.496L183.662 141.825L183.331 142.148L182.996 142.467L182.655 142.78L182.31 143.089L181.959 143.394L181.603 143.693L181.242 143.988L180.875 144.278L180.503 144.564L180.126 144.845L179.744 145.122L179.356 145.394L178.962 145.662L178.563 145.925L178.158 146.184L177.747 146.438L177.33 146.688L176.908 146.934L176.479 147.175L176.045 147.413L175.604 147.645L175.157 147.874L174.703 148.098L174.243 148.318L173.776 148.534L173.303 148.745L172.823 148.953L172.335 149.156L171.841 149.355L171.339 149.55L170.83 149.741L170.313 149.928L169.789 150.11L169.257 150.289L168.716 150.463L168.167 150.634L167.61 150.8L167.043 150.962L166.468 151.121L165.884 151.275L165.289 151.425L164.685 151.571L164.071 151.714L163.446 151.852L162.811 151.986L162.164 152.116L161.505 152.243L160.834 152.365L160.15 152.484L159.453 152.598L158.742 152.709L158.017 152.816L157.276 152.918L156.52 153.017L155.746 153.112L154.955 153.203L154.144 153.29L153.314 153.374L152.462 153.453L151.587 153.529L150.687 153.6L149.761 153.668L148.806 153.732L147.819 153.792L146.798 153.848L145.738 153.9L144.636 153.949L143.486 153.993L142.282 154.034L141.016 154.071L139.676 154.104L138.25 154.133L136.718 154.158L135.053 154.18L133.214 154.197L131.131 154.211L128.67 154.221L125.499 154.227L71.1281 154.228L67.7735 154.222L65.2317 154.213L63.1 154.2L61.2274 154.183L59.538 154.162L57.9869 154.137L56.5453 154.109L55.193 154.076L53.9156 154.04L52.7021 154L51.5441 153.956L50.4348 153.908L49.3689 153.856L48.3418 153.801L47.3498 153.742L46.3898 153.678L45.4591 153.611L44.5553 153.54L43.6766 153.465L42.8211 153.387L41.9873 153.304L41.1739 153.217L40.3795 153.127L39.6032 153.033L38.8439 152.934L38.1008 152.832L37.373 152.726L36.6598 152.616L35.9607 152.502L35.2749 152.384L34.6019 152.263L33.9412 152.137L33.2923 152.007L32.6548 151.873L32.0283 151.736L31.4124 151.594L30.8067 151.449L30.211 151.299L29.6249 151.145L29.0482 150.988L28.4805 150.826L27.9217 150.66L27.3714 150.491L26.8296 150.317L26.2959 150.139L25.7701 149.957L25.2522 149.771L24.7419 149.581L24.239 149.386L23.7435 149.188L23.2551 148.985L22.7737 148.779L22.2992 148.568L21.8315 148.353L21.3704 148.133L20.9158 147.91L20.4676 147.682L20.0258 147.45L19.5901 147.214L19.1606 146.973L18.7371 146.728L18.3196 146.478L17.9079 146.225L17.502 145.967L17.1018 145.704L16.7073 145.437L16.3183 145.166L15.9349 144.89L15.5569 144.609L15.1843 144.324L14.817 144.035L14.455 143.74L14.0982 143.442L13.7466 143.138L13.4001 142.83L13.0587 142.517L12.7223 142.199L12.391 141.876L12.0645 141.549L11.743 141.217L11.4263 140.879L11.1144 140.537L10.8074 140.19L10.5051 139.837L10.2076 139.48L9.91471 139.117L9.62651 138.749L9.34294 138.376L9.06398 137.997L8.78962 137.613L8.5198 137.223L8.25451 136.828L7.99372 136.427L7.73742 136.02L7.48558 135.608L7.23817 135.19L6.99518 134.766L6.75657 134.336L6.52232 133.899L6.29244 133.457L6.0669 133.008L5.84567 132.552L5.62875 132.09L5.41612 131.622L5.20776 131.146L5.00362 130.664L4.80374 130.174L4.60808 129.677L4.41664 129.173L4.22936 128.661L4.04631 128.142L3.86739 127.614L3.69267 127.079L3.52208 126.535L3.35559 125.982L3.19327 125.421L3.03505 124.851L2.88094 124.271L2.7309 123.682L2.58497 123.082L2.44311 122.473L2.3053 121.853L2.17159 121.221L2.04191 120.579L1.91626 119.924L1.79467 119.257L1.67709 118.577L1.56356 117.884L1.45404 117.176L1.34852 116.454L1.24701 115.716L1.14948 114.962L1.05598 114.19L0.96643 113.4L0.8809 112.59L0.799328 111.759L0.721744 110.907L0.648118 110.03L0.578451 109.127L0.512771 108.196L0.45105 107.235L0.393257 106.24L0.339453 105.208L0.289577 104.135L0.24366 103.015L0.201701 101.843L0.163672 100.611L0.1296 99.3086L0.0994286 97.9226L0.0732446 96.435L0.0509604 94.8201L0.0326346 93.0386L0.0182379 91.0259L0.00777015 88.6593L0.0012315 85.6408L0 70.3173L0.00527784 66.9369L0.0144847 64.4108L0.0276207 62.3032L0.0446857 60.4569L0.0657091 58.7941L0.0906615 57.2692L0.119543 55.8531L0.152383 54.5256L0.189152 53.2722L0.229879 52.0821L0.274535 50.9467L0.32315 49.8594L0.375694 48.8148L0.432225 47.8085L0.492686 46.8367L0.557105 45.8965L0.625512 44.985L0.697847 44.1001L0.774171 43.2397L0.854482 42.4022L0.938751 41.586L1.02701 40.7898L1.11925 40.0123L1.21551 39.2524L1.31574 38.5094L1.41997 37.7821L1.52823 37.07L1.6405 36.3722L1.75679 35.688L1.87709 35.017L2.00144 34.3586L2.12984 33.7122L2.26229 33.0773L2.39878 32.4536L2.53934 31.8407L2.68398 31.2382L2.8327 30.6457L2.9855 30.063L3.14242 29.4896L3.30346 28.9255L3.46859 28.3702L3.63787 27.8236L3.8113 27.2853L3.98887 26.7553L4.1706 26.2333L4.35653 25.7191L4.54665 25.2125L4.74096 24.7134L4.9395 24.2215L5.14225 23.7368L5.34929 23.2591L5.56055 22.7883L5.77612 22.3242L5.99597 21.8667L6.22013 21.4157L6.44864 20.9711L6.68148 20.5328L6.91869 20.1006L7.16029 19.6745L7.4063 19.2544L7.65673 18.8402L7.91159 18.4319L8.17097 18.0292L8.4348 17.6322L8.70318 17.2409L8.9761 16.855L9.2536 16.4746L9.53567 16.0995L9.8224 15.7298L10.1138 15.3654L10.4098 15.0062L10.7106 14.6521L11.0161 14.3031L11.3264 13.9592L11.6416 13.6203L11.9615 13.2864L12.2864 12.9574L12.6162 12.6332L12.951 12.3139L13.2908 11.9994L13.6357 11.6896L13.9856 11.3846L14.3408 11.0843L14.7011 10.7886L15.0667 10.4975L15.4376 10.2111L15.8139 9.92914L16.1956 9.65176L16.5828 9.37888L16.9755 9.11048L17.3739 8.84653L17.778 8.587L18.1878 8.33188L18.6035 8.08113L19.025 7.83474L19.4526 7.59269L19.8863 7.35495L20.3262 7.1215L20.7723 6.89233L21.2249 6.66741L21.6839 6.44673L22.1495 6.23026L22.6219 6.018L23.101 5.80993L23.5872 5.60603L24.0804 5.40628L24.5809 5.21068L25.0888 5.0192L25.6043 4.83183L26.1275 4.64857L26.6587 4.46939L27.1979 4.29429L27.7455 4.12325L28.3015 3.95626L28.8664 3.79332L29.4402 3.6344L30.0233 3.47951L30.6159 3.32862L31.2184 3.18174L31.831 3.03885L32.4541 2.89994L33.088 2.76501L33.7332 2.63404L34.3901 2.50704L35.0591 2.38398L35.7408 2.26488L36.4357 2.1497L37.1443 2.03846L37.8673 1.93115L38.6055 1.82775L39.3595 1.72827L40.1303 1.63269L40.9188 1.54102L41.7261 1.45324L42.5533 1.36936L43.4017 1.28936L44.2728 1.21325L45.1684 1.14102L46.0902 1.07266L47.0406 1.00818L48.0221 0.947563L49.0377 0.890815L50.0908 0.837929L51.1857 0.788904L52.3276 0.743737L53.5226 0.702425L54.7786 0.664967L56.1056 0.63136L57.5169 0.601603L59.0305 0.575694L60.6719 0.553632L62.4799 0.535416L64.5177 0.521045L66.9041 0.510518L69.9189 0.503835L124.188 0.501999L127.765 0.506846L130.397 0.515536L132.581 0.52807L134.489 0.544449L136.204 0.564673L137.775 0.588744L139.232 0.616662L140.598 0.648429L141.886 0.684047L143.109 0.723518L144.275 0.766842L145.392 0.814024L146.465 0.865065L147.498 0.919967L148.495 0.978734L149.46 1.04137L150.395 1.10787L151.303 1.17825L152.186 1.25251L153.045 1.33065L153.882 1.41268L154.699 1.49859L155.496 1.5884L156.275 1.68211L157.037 1.77973L157.783 1.88126L158.513 1.9867L159.228 2.09606L159.929 2.20936L160.617 2.32658L161.292 2.44775L161.955 2.57287L162.606 2.70194L163.245 2.83498L163.873 2.97198L164.491 3.11297L165.098 3.25794L165.695 3.40691L166.283 3.55989L166.861 3.71688L167.43 3.8779L167.991 4.04296L168.542 4.21206L169.085 4.38522L169.62 4.56245L170.147 4.74376L170.666 4.92916L171.178 5.11868L171.682 5.31231L172.179 5.51007L172.668 5.71199L173.151 5.91807L173.626 6.12832L174.095 6.34278L174.557 6.56144L175.013 6.78433L175.462 7.01147L175.905 7.24287L176.342 7.47856L176.772 7.71855L177.196 7.96287L177.615 8.21153L178.028 8.46456L178.434 8.72198L178.835 8.98381L179.231 9.25008L179.621 9.52082L180.005 9.79604L180.384 10.0758L180.757 10.3601L181.125 10.6489L181.488 10.9424L181.846 11.2405L182.198 11.5433L182.546 11.8508L182.888 12.163L183.225 12.48L183.557 12.8019L183.884 13.1286L184.207 13.4601L184.524 13.7967L184.837 14.1382L185.145 14.4847L185.448 14.8363L185.746 15.1931L186.04 15.555L186.329 15.9222L186.613 16.2947L186.893 16.6725L187.168 17.0558L187.438 17.4445L187.704 17.8389L187.966 18.2388L188.223 18.6444L188.475 19.0558L188.723 19.4731L188.967 19.8963L189.206 20.3255L189.441 20.7609L189.672 21.2025L189.898 21.6504L190.12 22.1048L190.338 22.5657L190.551 23.0333L190.76 23.5077L190.965 23.9891L191.165 24.4775L191.362 24.9731L191.554 25.4761L191.742 25.9866L191.925 26.5049L192.105 27.0311L192.28 27.5654L192.452 28.1079L192.619 28.6591L192.782 29.219L192.941 29.7879L193.095 30.3661L193.246 30.9539L193.393 31.5516L193.535 32.1595L193.674 32.778L193.808 33.4074L193.938 34.0482L194.065 34.7009L194.187 35.3658L194.305 36.0436L194.419 36.7348L194.529 37.44L194.636 38.16L194.738 38.8954L194.836 39.6471L194.93 40.416L195.02 41.2031L195.106 42.0097L195.189 42.8368L195.267 43.6861L195.341 44.559L195.411 45.4575L195.478 46.3837L195.54 47.3401L195.598 48.3294L195.653 49.3552L195.703 50.4215L195.75 51.5332L195.793 52.6963L195.831 53.9182L195.866 55.2087L195.897 56.5804L195.923 58.0503L195.946 59.6428L195.965 61.3943L195.98 63.3641L195.991 65.6616L195.999 68.539L196 85.0513ZM80.7059 119.64H111.452C140.579 119.64 157.57 101.522 157.57 77.1235C157.57 52.4831 140.81 35.0898 111.914 35.0898H80.7059V119.64ZM65.3331 119.64H42.2739V35.0898H65.3331V119.64Z" fill="#4825C2"/>
</svg>
