<svg width="40" height="40" viewBox="0 0 40 40" fill="none" xmlns="http://www.w3.org/2000/svg">
<path fill-rule="evenodd" clip-rule="evenodd" d="M0 20C0 8.9543 8.9543 0 20 0C31.0457 0 40 8.9543 40 20C40 31.0457 31.0457 40 20 40C8.9543 40 0 31.0457 0 20ZM20 3.63636C10.9626 3.63636 3.63636 10.9626 3.63636 20C3.63636 29.0374 10.9626 36.3636 20 36.3636C29.0374 36.3636 36.3636 29.0374 36.3636 20C36.3636 10.9626 29.0374 3.63636 20 3.63636ZM20.0077 7.27273C21.0119 7.27283 21.8258 8.08694 21.8257 9.09109L21.8247 19.255L29.0006 26.4309C29.7107 27.1409 29.7107 28.2922 29.0006 29.0022C28.2906 29.7122 27.1394 29.7122 26.4294 29.0022L18.7208 21.2936C18.3798 20.9526 18.1882 20.4901 18.1883 20.0078L18.1894 9.09073C18.1895 8.08657 19.0036 7.27263 20.0077 7.27273Z" fill="white"/>
</svg>
