<svg width="354" height="118" viewBox="0 0 354 118" fill="none" xmlns="http://www.w3.org/2000/svg">
<path fill-rule="evenodd" clip-rule="evenodd" d="M199 0H222.41V93.64H245.82V0H269.23V117.05H199V0ZM353.116 0H282.886V23.41H323.203L282.886 93.64V117.05H353.116V93.64H312.799L353.116 23.41V0ZM49.0632 38.4641C48.3043 39.0215 47.0985 39.0213 45.4554 39.0212L45.3632 39.0211C45.2318 39.0211 45.0982 39.02 44.962 39.0188C44.6817 39.0164 44.3905 39.0139 44.0852 39.0211C38.324 39.0747 35.3146 42.8241 35.3146 50.7514V52.1011C35.3146 58.0787 38.2828 61.2818 43.0752 61.2818C47.8573 61.2818 50.8153 58.0787 50.8153 53.0546C50.8153 48.2339 48.1047 45.3523 44.0646 45.3523C41.519 45.3523 39.8081 46.4985 38.8599 48.5124H38.7053C39.0764 44.4738 40.5605 42.8134 44.2295 42.7705C47.476 42.717 49.0529 42.5991 50.403 41.4422L49.0632 38.4641ZM43.0958 57.7466C41.0243 57.7466 39.7772 56.0112 39.7772 53.2045C39.7978 50.3979 41.0346 48.8124 43.0752 48.8124C45.1056 48.8124 46.3526 50.3979 46.3526 53.2045C46.3526 56.0219 45.1056 57.7466 43.0958 57.7466ZM5.10162 61.2604H3.51445V57.4895H4.65845C6.35899 57.4895 6.97737 56.8254 7.41024 55.5291L7.66789 54.8114L0 39.0211H4.61723L9.58487 49.8194L13.7383 39.0211H18.2937L11.0174 56.654C9.9559 59.0964 8.56454 61.2604 5.10162 61.2604ZM26.5207 61.2818C22.7177 61.2818 19.9247 59.5142 19.8113 56.3005H24.0678C24.109 57.3931 25.0881 58.0573 26.5001 58.0573C27.9327 58.0573 29.0355 57.3503 29.0355 56.0434C29.0355 54.8543 28.1182 54.0401 26.7474 54.0401H24.4698V51.0513H26.7474C28.1079 51.0513 28.8706 50.3229 28.8706 49.3266C28.8706 48.2232 28.0564 47.4733 26.7578 47.4733C25.4489 47.4733 24.5007 48.1482 24.4698 49.1123H20.2339C20.2648 46.1557 23.0166 44.2917 26.5619 44.2917C30.4371 44.2917 32.8282 46.0593 32.8282 48.9302C32.8282 50.6764 31.6636 51.8762 29.6951 52.369V52.5404C31.6326 52.6689 33.2095 54.1044 33.2095 56.3969C33.2095 59.4606 30.4165 61.2818 26.5207 61.2818ZM68.117 56.2469C67.4986 59.3 64.8602 61.2818 60.9438 61.2818C56.0689 61.2818 53.0904 58.0252 53.0904 52.8082C53.0904 47.7304 56.1101 44.2917 60.7686 44.2917C64.9529 44.2917 68.2097 47.0555 68.2097 52.6475V53.9008H57.4293V53.9116C57.4293 56.3647 58.8207 57.8752 61.0159 57.8752C62.4794 57.8752 63.6131 57.2217 64.0563 55.9684L68.117 56.2469ZM60.8407 47.6983C58.8928 47.6983 57.5221 49.198 57.4293 51.0727H64.0769C64.0666 49.1123 62.7474 47.6983 60.8407 47.6983ZM71.0749 60.9604H75.4654V55.1221H77.1041L81.0102 60.9604H86.2252L80.567 52.6689L86.1633 44.506H81.0102L76.7021 50.8906H75.4654V44.506H71.0749V60.9604ZM92.275 44.506V54.94L97.9743 44.506H102.303V60.9604H98.1186V50.4943L92.4399 60.9604H88.0803V44.506H92.275ZM112.975 61.2818C117.19 61.2818 119.839 58.7108 120.045 54.9292H115.902C115.645 56.6861 114.531 57.6717 113.027 57.6717C110.976 57.6717 109.646 55.8827 109.646 52.7332C109.646 49.6265 110.986 47.8483 113.027 47.8483C114.634 47.8483 115.665 48.9517 115.902 50.5907H120.045C119.86 46.7877 117.087 44.2917 112.955 44.2917C108.152 44.2917 105.184 47.7519 105.184 52.7975C105.184 57.8002 108.1 61.2818 112.975 61.2818ZM126.866 48.0947H121.805V44.506H136.151V48.0947H131.05V60.9604H126.866V48.0947ZM142.76 61.2711C145.1 61.2711 146.615 60.2105 147.388 58.6786H147.512V60.9604H151.675V49.8622C151.675 45.9414 148.48 44.2917 144.956 44.2917C141.163 44.2917 138.669 46.1771 138.061 49.1766L142.121 49.5194C142.42 48.4267 143.358 47.6233 144.935 47.6233C146.429 47.6233 147.285 48.4053 147.285 49.7551V49.8194C147.285 50.8799 146.203 51.0192 143.451 51.2977C140.318 51.5977 137.504 52.6903 137.504 56.3647C137.504 59.6213 139.741 61.2711 142.76 61.2711ZM144.018 58.1216C142.668 58.1216 141.699 57.4681 141.699 56.2148C141.699 54.9292 142.719 54.2972 144.265 54.0722C145.224 53.933 146.79 53.6973 147.316 53.3331V55.0792C147.316 56.8039 145.945 58.1216 144.018 58.1216ZM155.082 44.506H159.276V50.9121H164.687V44.506H168.851V60.9604H164.687V54.5007H159.276V60.9604H155.082V44.506ZM158.614 15.6139V5.54242H154.419V21.4252H158.779L164.457 11.3227V21.4252H168.641V5.54242H164.313L158.614 15.6139ZM163.56 0C163.56 0.971992 162.983 1.85092 161.52 1.85092C160.015 1.85092 159.459 0.951312 159.469 0H156.429C156.429 2.50236 158.397 4.1775 161.52 4.1775C164.642 4.1775 166.611 2.50236 166.621 0H163.56ZM40.3327 17.8474H37.4059V0.248169H33.0673V17.8267H24.2871V0.248169H20V21.4252H35.8292V26.4299H40.0751L40.3327 17.8474ZM47.1523 15.6139V5.54242H42.958V21.4252H47.3172L52.9955 11.3227V21.4252H57.1795V5.54242H52.8513L47.1523 15.6139ZM72.6532 26.8228H68.2734V21.7354C63.4298 21.7354 60.0599 18.3851 60.0599 13.5458C60.0599 8.67554 63.4298 5.33562 68.2734 5.33562V0.248169H72.6532V5.33562C77.4968 5.33562 80.8667 8.67554 80.8667 13.5458C80.8667 18.3851 77.4968 21.7354 72.6532 21.7354V26.8228ZM72.6532 8.76861V18.3024C75.0132 18.3024 76.3632 16.2033 76.3632 13.5458C76.3632 10.8884 75.0132 8.76861 72.6532 8.76861ZM64.5737 13.5458C64.5737 16.2033 65.934 18.3024 68.2734 18.3024V8.76861C65.9134 8.76861 64.5737 10.8884 64.5737 13.5458ZM83.7393 27.3812H88.1294V18.8815H88.2634C88.8714 20.205 90.2008 21.6837 92.7566 21.6837C96.3635 21.6837 99.1769 18.8194 99.1769 13.5045C99.1769 8.04478 96.2398 5.33562 92.7669 5.33562C90.1184 5.33562 88.8508 6.91769 88.2634 8.21023H88.0676V5.54242H83.7393V27.3812ZM88.0367 13.4838C88.0367 10.6505 89.2321 8.84099 91.3654 8.84099C93.5398 8.84099 94.694 10.7333 94.694 13.4838C94.694 16.255 93.5192 18.1783 91.3654 18.1783C89.2527 18.1783 88.0367 16.3171 88.0367 13.4838ZM117.047 13.5458C117.047 18.4368 114.058 21.7354 109.256 21.7354C104.453 21.7354 101.465 18.4368 101.465 13.5458C101.465 8.62384 104.453 5.33562 109.256 5.33562C114.058 5.33562 117.047 8.62384 117.047 13.5458ZM105.927 13.5148C105.927 16.286 107.061 18.3231 109.276 18.3231C111.451 18.3231 112.584 16.286 112.584 13.5148C112.584 10.7436 111.451 8.69622 109.276 8.69622C107.061 8.69622 105.927 10.7436 105.927 13.5148ZM119.901 21.4252H127.692C131.649 21.4252 133.855 19.8017 133.855 17.0926C133.855 15.0038 132.206 13.3494 129.362 13.1426C131.629 12.7496 132.979 11.5502 132.979 9.83366C132.979 7.08313 130.557 5.54242 126.651 5.54242H119.901V21.4252ZM123.992 18.1266V14.6626H127.692C128.908 14.6626 129.65 15.3554 129.65 16.4825C129.65 17.5062 128.908 18.1266 127.692 18.1266H123.992ZM123.992 12.0775V8.91337H126.651C128.012 8.91337 128.846 9.50277 128.846 10.4748C128.846 11.4778 128.053 12.0775 126.744 12.0775H123.992ZM151.565 13.5458C151.565 18.4368 148.576 21.7354 143.774 21.7354C138.971 21.7354 135.983 18.4368 135.983 13.5458C135.983 8.62384 138.971 5.33562 143.774 5.33562C148.576 5.33562 151.565 8.62384 151.565 13.5458ZM140.445 13.5148C140.445 16.286 141.579 18.3231 143.794 18.3231C145.969 18.3231 147.102 16.286 147.102 13.5148C147.102 10.7436 145.969 8.69622 143.794 8.69622C141.579 8.69622 140.445 10.7436 140.445 13.5148ZM66.1579 117.024H38.6987V110.052L52.044 99.0364C54.6817 96.8577 56.3062 95.2193 56.3062 92.692C56.3062 89.9555 54.4022 88.2997 51.7296 88.2997C49.0396 88.2997 47.2055 89.973 47.223 92.9709H38C37.9826 85.4587 43.3976 80.8398 51.7296 80.8398C60.3062 80.8398 65.7736 85.1972 65.7736 91.8554C65.7736 95.9862 63.695 99.507 55.5376 106.287L52.1838 109.076V109.285H66.1579V117.024ZM101.871 99.2456C101.853 111.063 95.8093 118.017 86.0798 118C76.3328 117.983 70.2541 111.011 70.289 99.2456C70.324 87.4631 76.3328 80.8398 86.0798 80.8398C95.8093 80.8398 101.888 87.4979 101.871 99.2456ZM80.3504 99.2456C80.3155 106.758 82.726 110.122 86.0798 110.122C89.4336 110.122 91.8266 106.758 91.8092 99.2456C91.7917 91.9077 89.4336 88.6483 86.0798 88.6483C82.726 88.6483 80.3853 91.9077 80.3504 99.2456ZM120.404 117.512C129.155 117.512 135.321 113.067 135.286 106.775C135.321 102.4 132.387 99.3153 126.622 98.6878V98.409C130.884 97.9558 133.994 95.2193 133.959 91.2279C133.994 85.2146 128.404 80.8398 120.474 80.8398C112.369 80.8398 106.604 85.4587 106.569 91.9948H115.862C115.897 89.8335 117.801 88.2997 120.474 88.2997C122.919 88.2997 124.631 89.7812 124.596 91.8554C124.631 94.0167 122.605 95.5505 119.705 95.5505H116.072V102.243H119.705C122.849 102.243 125.05 103.777 125.015 105.939C125.05 108.152 123.164 109.703 120.474 109.703C117.679 109.703 115.687 108.222 115.653 106.148H105.871C105.906 112.806 111.932 117.512 120.404 117.512ZM170.994 99.2456C170.977 111.063 164.933 118.017 155.204 118C145.457 117.983 139.378 111.011 139.413 99.2456C139.448 87.4631 145.457 80.8398 155.204 80.8398C164.933 80.8398 171.012 87.4979 170.994 99.2456ZM149.474 99.2456C149.439 106.758 151.85 110.122 155.204 110.122C158.557 110.122 160.951 106.758 160.933 99.2456C160.916 91.9077 158.557 88.6483 155.204 88.6483C151.85 88.6483 149.509 91.9077 149.474 99.2456Z" fill="white"/>
</svg>
